<?xml version="1.0" encoding="UTF-8" standalone="no"?>
<svg width="186px" height="356px" viewBox="0 0 186 356" version="1.1" xmlns="http://www.w3.org/2000/svg" xmlns:xlink="http://www.w3.org/1999/xlink">
    <!-- Generator: Sketch 41.2 (35397) - http://www.bohemiancoding.com/sketch -->
    <title>ant</title>
    <desc>Created with Sketch.</desc>
    <defs></defs>
    <g id="Page-1" stroke="none" stroke-width="1" fill="none" fill-rule="evenodd">
        <g id="postcss-ant-logo" transform="translate(-380.000000, -68.000000)">
            <g id="ant" transform="translate(380.000000, 68.000000)">
                <path d="M61.7207312,218.411788 C61.7207312,218.411788 52.3624673,260.746753 51.211861,279.613422 C50.0612548,298.556785 49.5243053,318.497167 49.5243053,321.641612 C49.5243053,324.786056 48.2202849,332.762209 54.2801443,333.375759 C56.5813567,333.605841 58.4223267,333.452453 60.1865895,333.299066 C63.1014586,333.068984 65.8629135,332.838903 70.2352172,334.219391 C73.9938641,335.446491 78.7497032,334.909635 83.7356634,334.372778 C88.1846742,333.912616 92.8638061,333.452453 97.0826956,334.219391 C106.057424,335.906654 111.810455,335.983348 123.316517,334.986329 C134.822579,333.98931 134.28563,332.071965 149.627046,332.992291 C164.968462,333.912616 165.735533,332.762209 164.815048,326.473319 C163.894563,320.18443 151.161188,228.151898 134.132216,214.116937 C117.179951,200.081976 61.7207312,218.411788 61.7207312,218.411788" id="Shape" fill="#E33B3B"></path>
                <path d="M137.501905,326.20142 C134.122473,326.354805 130.58943,327.351807 127.82444,328.348808 L127.82444,334.484203 C133.50803,333.717279 135.735383,332.720277 142.724664,332.720277 C144.644796,332.720277 146.872149,332.796969 149.637139,332.950354 C152.55574,333.103739 155.013508,333.180431 156.93364,333.180431 C163.538894,333.180431 165.075,332.106737 165.075,329.115732 C165.075,328.578885 164.998195,328.042038 164.921389,327.428499 C161.772373,327.735269 158.08572,327.888654 154.629482,327.888654 C149.483528,327.888654 144.644796,327.505191 141.803,326.661575 C141.418974,326.584882 141.034948,326.431497 140.727727,326.354805 C140.574116,327.351807 140.19009,328.118731 139.345232,328.272116 C139.268426,328.272116 139.114816,328.348808 139.03801,328.348808 C138.346763,328.425501 137.809126,327.505191 137.501905,326.20142 M85.2743152,299.128991 C84.3526519,306.798234 82.8933516,322.903645 84.1990413,334.40751 C86.8104208,334.100741 89.4218003,333.870663 92.0331798,333.870663 C93.7997012,333.870663 95.4894173,334.024048 97.1023282,334.254126 C102.248282,335.251127 106.395767,335.634589 111.157694,335.634589 C113.692268,335.634589 116.457258,335.481205 119.606275,335.251127 C121.065575,324.360802 119.759885,308.945622 118.838222,300.586147 C114.460321,304.113999 108.930341,306.261387 102.862724,306.261387 C96.0270543,306.261387 89.8058267,303.577152 85.2743152,299.128991 M52.4016559,283.560427 C52.4016559,283.560427 51.7872136,283.943889 50.8655503,284.480736 L50.8655503,285.170968 C51.7872136,284.250659 52.4016559,283.560427 52.4016559,283.560427 M51.5567978,274.740797 C51.4799925,275.737798 51.4031873,276.658108 51.326382,277.501724 C51.5567978,277.425032 51.7104084,277.425032 51.7104084,277.425032 C51.7104084,277.425032 51.6336031,276.504723 51.5567978,274.740797 M66.6874377,236.471272 C62.4631474,243.910438 56.8563621,257.791769 58.6228835,277.501724 L60.0053785,277.501724 C62.7703685,277.501724 68.8379856,277.808494 68.2235433,280.876191 C67.7627117,283.176964 64.8441111,283.713811 62.616758,283.713811 C61.0806524,283.713811 59.7749626,283.483734 59.7749626,283.483734 C59.7749626,283.483734 63.461616,300.739532 58.5460782,300.739532 L58.3156624,300.739532 C53.0929034,300.125992 55.9346987,285.017583 55.9346987,285.017583 C55.9346987,285.017583 53.8609562,292.686826 50.4047186,294.450752 C49.7902764,307.871928 49.4830553,319.375793 49.4830553,321.676566 C49.4830553,322.596876 49.40625,323.977339 49.40625,325.511188 C49.40625,328.962348 50.0206922,333.027047 54.2449826,333.487201 C55.1666459,333.563894 55.9346987,333.640586 56.7027515,333.640586 C57.931636,333.640586 59.0069099,333.563894 60.158989,333.487201 C61.2342629,333.410509 62.3095369,333.333816 63.461616,333.333816 C65.381748,333.333816 67.4554905,333.563894 70.2204806,334.484203 C71.9101967,335.02105 73.8303287,335.251127 75.8272659,335.251127 L76.0576818,335.251127 C75.9808765,324.437494 76.2880976,303.270382 79.8211404,291.689825 C79.2066982,290.309361 78.6690613,288.928897 78.3618401,287.471741 C75.3664343,290.692823 68.8379856,299.43576 68.0699328,314.314093 C68.0699328,314.314093 74.5215762,314.85094 73.7535234,317.228405 C73.369497,318.302099 72.2942231,318.608869 71.1421439,318.608869 C69.7596489,318.608869 68.3003486,318.148714 68.3003486,318.148714 C68.3003486,318.148714 69.0684014,328.73227 66.2266061,328.73227 C66.1498008,328.73227 65.9961902,328.73227 65.919385,328.655578 C62.6935632,327.888654 65.7657744,318.685561 65.7657744,318.685561 C65.7657744,318.685561 63.461616,324.207417 60.8502366,324.207417 C60.5430154,324.207417 60.2357943,324.130724 59.9285732,323.977339 C57.0099726,322.366798 63.6920319,317.611867 63.6920319,317.611867 C63.6920319,317.611867 60.4662102,319.069024 58.6228835,319.069024 C57.7012201,319.069024 57.0099726,318.685561 57.3171937,317.535175 C58.1620518,314.160708 63.7688372,313.700553 63.7688372,313.700553 C63.7688372,313.700553 65.6889691,287.625126 77.5937874,282.793502 C77.5937874,282.256655 77.5169821,281.719808 77.5169821,281.259654 C77.5169821,277.425032 78.3618401,273.820487 79.8979457,270.599405 C71.8333914,264.464011 66.6106325,254.954149 66.6106325,244.370593 C66.6106325,244.370593 66.5338272,243.066821 66.5338272,240.996126 C66.5338272,239.538969 66.6106325,238.081813 66.6874377,236.471272 M59.3909363,229.185491 C59.0069099,231.102802 58.5460782,233.326882 58.0852465,235.550963 C58.9301046,233.863729 59.9285732,232.253188 61.0038471,230.796032 L59.3909363,229.185491" id="Shape" fill="#DA2B2B"></path>
                <path d="M71.207428,230.436355 C71.207428,230.436355 56.1036438,246.9226 58.7103883,277.824726 C58.7103883,277.824726 69.0606972,277.211284 68.2940077,281.198655 C67.5273181,285.109346 59.8604226,283.805783 59.8604226,283.805783 C59.8604226,283.805783 63.6172014,301.672272 58.4037124,301.05883 C53.1902235,300.445389 56.0269748,285.339387 56.0269748,285.339387 C56.0269748,285.339387 52.9602166,296.841419 47.9767345,294.924413 C42.9932524,293.007408 52.5768718,283.959143 52.5768718,283.959143 C52.5768718,283.959143 41.843218,290.860362 42.4565697,285.262707 C43.0699213,279.741731 51.8101823,277.824726 51.8101823,277.824726 C51.8101823,277.824726 48.9734309,231.816599 69.8273868,224.531978 L71.207428,230.436355 M132.159248,230.436355 C132.159248,230.436355 147.339701,246.9226 144.656287,277.824726 C144.656287,277.824726 134.305978,277.211284 135.072668,281.198655 C135.839357,285.109346 143.506253,283.805783 143.506253,283.805783 C143.506253,283.805783 139.749474,301.672272 144.962963,301.05883 C150.176452,300.445389 147.339701,285.339387 147.339701,285.339387 C147.339701,285.339387 150.406459,296.841419 155.389941,294.924413 C160.373423,293.007408 150.789804,283.959143 150.789804,283.959143 C150.789804,283.959143 161.523458,290.860362 160.986775,285.262707 C160.373423,279.741731 151.556493,277.824726 151.556493,277.824726 C151.556493,277.824726 154.469914,231.816599 133.539289,224.531978 L132.159248,230.436355 M125.719055,286.106189 C125.719055,286.106189 136.452709,295.077774 137.372737,314.401187 C137.372737,314.401187 130.932544,314.937949 131.699234,317.315035 C132.465923,319.692122 137.14273,318.235198 137.14273,318.235198 C137.14273,318.235198 136.299371,329.583869 139.519467,328.817067 C142.739563,328.050265 139.672805,318.84864 139.672805,318.84864 C139.672805,318.84864 142.509557,325.749859 145.422977,324.139574 C148.336397,322.52929 141.666198,317.775117 141.666198,317.775117 C141.666198,317.775117 148.87308,321.149046 148.10639,317.775117 C147.263032,314.401187 141.666198,313.941106 141.666198,313.941106 C141.666198,313.941106 139.596136,285.186026 126.025731,282.425539 L125.719055,286.106189 M79.5643442,282.348859 C65.993939,285.109346 63.9238772,313.864426 63.9238772,313.864426 C63.9238772,313.864426 58.3270435,314.324507 57.483685,317.698436 C56.6403265,321.072366 63.9238772,317.698436 63.9238772,317.698436 C63.9238772,317.698436 57.2536781,322.45261 60.1670984,324.062894 C63.0805187,325.673179 65.9172701,318.771959 65.9172701,318.771959 C65.9172701,318.771959 62.8505119,327.896905 66.070608,328.740387 C69.2907041,329.583869 68.4473456,318.158518 68.4473456,318.158518 C68.4473456,318.158518 73.0474829,319.615442 73.8908414,317.238355 C74.657531,314.861269 68.2173387,314.324507 68.2173387,314.324507 C69.1373662,295.001094 79.87102,286.029509 79.87102,286.029509 L79.5643442,282.348859 M81.0210543,288.943357 C74.9642068,303.282557 76.420917,342.082744 76.420917,342.082744 C76.420917,342.082744 51.2734996,345.763394 50.50681,351.897811 C49.7401205,358.032228 64.6905668,355.961862 75.9609032,353.431415 C87.2312397,350.900968 87.6912534,353.201375 84.931171,337.865332 C82.0944197,322.52929 86.0812054,294.924413 86.0812054,294.924413 C86.0812054,294.924413 87.0012328,274.604157 81.0210543,288.943357 M118.205498,295.001094 C118.205498,295.001094 122.192283,322.60597 119.355532,337.942013 C116.518781,353.278055 117.055463,350.977649 128.3258,353.508096 C139.596136,356.038543 154.546583,358.108908 153.779893,351.974491 C153.013204,345.840074 127.865786,342.159424 127.865786,342.159424 C127.865786,342.159424 129.322496,303.359237 123.265649,289.020037 C117.132132,274.604157 118.205498,295.001094 118.205498,295.001094" id="Shape" fill="#3A305B"></path>
                <path d="M127.875,281.246662 C127.875,295.201911 116.535341,306.550136 102.590625,306.550136 C88.6459091,306.550136 77.30625,295.201911 77.30625,281.246662 C77.30625,267.291413 88.6459091,255.943188 102.590625,255.943188 C116.61196,256.019865 127.875,267.291413 127.875,281.246662" id="Shape" fill="#44386B"></path>
                <path d="M125.24804,269.322036 C119.004817,274.614767 110.757596,277.759724 101.739606,277.759724 C93.4153081,277.759724 85.7847016,274.998299 79.6956318,270.47263 C78.1540952,273.694292 77.30625,277.299486 77.30625,281.134799 C77.30625,291.413436 83.4723966,300.311361 92.3362324,304.22338 C85.8617785,295.095336 87.2491615,279.293849 87.2491615,279.293849 C94.3402301,281.51833 100.275146,282.362099 105.208064,282.362099 C118.156972,282.362099 124.246041,276.379011 126.7125,272.773817 C126.327116,271.623224 125.864655,270.47263 125.24804,269.322036" id="Shape" fill="#362B5D"></path>
                <path d="M126.446663,210.20652 C138.148278,216.105103 137.154023,243.912706 137.154023,243.912706 C137.154023,262.451109 121.475389,277.465683 102.049178,277.465683 C82.6994481,277.465683 66.9443323,262.451109 66.9443323,243.912706 C66.9443323,243.912706 65.0323036,219.399116 77.881136,211.508804 C90.7299683,203.695097 126.446663,210.20652 126.446663,210.20652" id="Shape" fill="#4E427C"></path>
                <path d="M66.997422,235.903959 C66.84375,237.82656 66.84375,239.595353 66.84375,240.979625 C66.84375,243.056034 66.920586,244.363403 66.920586,244.363403 C66.920586,262.97418 82.671963,278.047372 102.188303,278.047372 C113.252685,278.047372 123.164527,273.125514 129.61875,265.512014 C125.469607,267.280807 120.167924,268.511271 113.252685,268.511271 C109.948738,268.511271 106.337446,268.203655 102.418811,267.588423 C81.5194232,264.204645 78.7533277,248.900741 79.2911796,238.672504 C79.0606717,238.826312 78.7533277,238.903216 78.5228198,239.057024 C77.6776239,239.36464 76.8324281,239.518448 75.9872323,239.518448 C72.9137928,239.518448 69.8403534,237.903464 66.997422,235.903959 M118.016516,223.3686 C110.10241,225.291201 101.804123,226.290954 93.198493,226.290954 C89.3566937,226.290954 85.5148944,226.060242 81.7499312,225.675721 C82.0572751,226.521666 82.518291,227.829034 82.748799,229.367115 C82.748799,229.444019 82.748799,229.520923 82.8256349,229.597827 C89.9713816,230.443772 95.8877524,230.751388 100.882091,230.751388 C108.335182,230.751388 113.483193,230.059252 117.017648,229.213307 L117.017648,228.828787 C117.017648,226.752378 117.5555,224.752873 118.016516,223.3686" id="Shape" fill="#3E336C"></path>
                <path d="M80.9772923,224.256787 C80.9772923,224.256787 86.3550984,235.388632 78.1347376,238.613029 C69.9143769,241.837425 57.5454228,227.097327 57.5454228,227.097327 C57.3149454,210.437945 80.9772923,224.256787 80.9772923,224.256787 M118.391458,221.185933 C118.391458,221.185933 113.013652,232.317778 121.234012,235.542175 C129.531199,238.843343 141.823327,224.026473 141.823327,224.026473 C142.053805,207.367091 118.391458,221.185933 118.391458,221.185933" id="Shape" fill="#E35454"></path>
                <g id="Group" transform="translate(58.125000, 216.388331)" fill="#DA3D3D">
                    <path d="M78.8473773,0 C72.7198072,2.86054151 66.209264,5.11886375 59.3923423,6.69968933 C58.9327745,8.05468267 58.3966121,10.0118953 58.3966121,11.9691079 L58.3966121,12.1196627 C66.5922371,10.3130049 74.4814836,6.85024414 81.0686215,1.05388371 C80.4558645,0.602219265 79.6899182,0.225832224 78.8473773,0 M1.56339953,4.36608967 C0.950642523,4.96830894 0.41448014,5.72108302 0.0315070093,6.69968933 C4.70377921,8.2805149 13.5887558,10.9152242 24.3120035,12.5713272 C24.0822196,11.1410564 23.6226519,9.86134047 23.3162734,8.95801157 C15.6568107,8.20523749 8.45691589,6.62441192 1.56339953,4.36608967" id="Shape"></path>
                </g>
                <path d="M186,144.8789 C186,189.870154 144.368508,226.277046 93,226.277046 C41.6314922,226.277046 0,189.793507 0,144.8789 C0,99.964292 41.6314922,63.4041079 93,63.4041079 C144.368508,63.4041079 186,99.8876459 186,144.8789" id="Shape" fill="#64549E"></path>
                <path d="M44.4334545,75.0378891 C17.7733818,89.4013844 0,115.20959 0,144.704682 C0,189.792231 41.5989065,226.277046 92.9272074,226.277046 C121.119468,226.277046 146.323962,215.293196 163.33125,197.857295 C145.557868,206.997702 127.171611,211.068639 109.857886,211.068639 C63.662415,211.068639 24.5150094,182.034408 22.5231649,141.325036 C20.7611486,107.451766 33.4017003,86.6362196 44.4334545,75.0378891" id="Shape" fill="#4F4089"></path>
                <path d="M165.65625,139.605375 C165.65625,156.018072 153.98063,169.271517 139.616544,169.271517 C125.252459,169.271517 113.576839,156.018072 113.576839,139.605375 C113.576839,123.192678 125.252459,109.939233 139.616544,109.939233 C153.98063,109.939233 165.65625,123.192678 165.65625,139.605375 L165.65625,139.605375 Z M13.95,139.605375 C13.95,156.018072 25.6256203,169.271517 39.9897057,169.271517 C54.3537911,169.271517 66.0294114,156.018072 66.0294114,139.605375 C66.0294114,123.192678 54.3537911,109.939233 39.9897057,109.939233 C25.6256203,109.939233 13.95,123.192678 13.95,139.605375 L13.95,139.605375 Z" id="Shape" fill="#FFFFFF"></path>
                <ellipse id="Oval" fill="#201B33" cx="46.5" cy="142.222976" rx="13.36875" ry="14.251382"></ellipse>
                <ellipse id="Oval" fill="#201B33" cx="133.10625" cy="142.222976" rx="13.36875" ry="14.251382"></ellipse>
                <path d="M108.681833,166.872783 C108.145113,171.282123 104.924789,175.072609 101.09107,176.929173 C97.257351,178.940451 92.9635858,179.636663 88.7464949,179.714019 C86.6762867,179.791376 84.5294041,179.714019 82.4591958,179.404592 C81.3857545,179.249878 80.3889876,179.017808 79.3155463,178.785737 L77.7820587,178.321596 L77.0153149,178.089526 L76.2485711,177.780098 C74.2550373,177.083887 72.3381778,176.000891 70.6513415,174.685825 C68.9645051,173.370758 67.5076919,171.746265 66.4342506,169.8897 C66.1275531,169.348202 66.2809019,168.884061 66.510925,168.806704 C66.8176225,168.729348 67.12432,168.806704 67.4310175,169.270846 C68.5811332,170.895339 70.0379464,172.210406 71.6481084,173.293401 C73.2582703,174.376397 75.0217811,175.227323 76.9386405,175.76882 L77.6287099,176.000891 L78.3187794,176.155605 L79.7755926,176.542389 C80.7723595,176.697103 81.692452,176.929173 82.689219,177.00653 C84.6827528,177.2386 86.5996123,177.315957 88.5931462,177.2386 C92.5802139,177.161244 96.5672816,176.619746 100.017629,174.995252 C100.937721,174.608468 101.704465,174.06697 102.547883,173.602829 L103.697999,172.751904 C104.081371,172.442476 104.388068,172.055692 104.694766,171.746265 C105.001463,171.436837 105.308161,170.972696 105.614858,170.663269 C105.921556,170.276485 106.151579,169.8897 106.381602,169.425559 C106.841648,168.574634 107.22502,167.646352 107.378369,166.71807 C107.531718,166.099215 107.838415,165.789788 108.145113,165.789788 C108.45181,165.712431 108.758508,166.176572 108.681833,166.872783 L108.681833,166.872783 Z" id="Shape" fill="#2F2944"></path>
                <path d="M65.1226618,85.5832942 C65.1226618,85.5832942 67.5846525,89.9636113 73.4318803,86.5054662 C79.3560454,83.047321 77.0479291,10.4262728 51.5047759,1.7424861 C21.8839507,-8.32455868 -4.81326065,28.1012369 6.88119503,37.630348 C12.9592345,42.5485989 19.9605205,35.7860039 27.3464925,29.1002566 C34.193904,22.8755954 41.4260016,16.5740864 48.4272876,19.7248409 C61.5835502,25.4115685 69.277271,48.0816312 65.1226618,85.5832942" id="Shape" fill="#7663BA"></path>
                <path d="M44.7964354,12.2154703 C33.8076448,12.2154703 22.8956989,27.3916726 15.3649193,30.8408095 C14.212249,31.3773419 13.213268,31.6072844 12.3679765,31.6072844 C8.06467385,31.6072844 6.68146944,26.1653128 6.2204013,22.3329385 C4.83719689,25.245543 4.06875,28.1581475 4.06875,30.6875145 C4.06875,33.3701766 4.91404158,35.6696011 6.83515882,37.2025509 C8.29520791,38.3522632 9.75525701,38.8887956 11.3689955,38.8887956 C16.2870556,38.8887956 21.6661839,33.8300615 27.2758462,28.6946799 C32.8855085,23.6359458 38.7257049,18.5005642 44.4890566,18.5005642 C45.7954163,18.5005642 47.101776,18.7305067 48.3312911,19.3436866 C59.0127029,24.0191832 66.0824143,40.0385079 66.0824143,66.0986532 C66.0824143,71.9238622 65.6981909,78.2856036 65.0065887,85.1072298 C65.0065887,85.1072298 65.9287249,86.7934745 68.1572209,87.2533595 C73.7668832,57.6674297 68.2340656,31.9905218 54.8630897,17.2742044 C51.4819233,13.5951251 48.1776017,12.2154703 44.7964354,12.2154703" id="Shape" fill="#5D4CA1"></path>
                <path d="M127.897662,85.5832942 C127.897662,85.5832942 130.359652,89.9636113 136.20688,86.5054662 C142.131045,83.047321 139.822929,10.4262728 114.279776,1.7424861 C84.6589507,-8.32455868 57.9617393,28.1012369 69.656195,37.630348 C75.7342345,42.5485989 82.7355205,35.7860039 90.1214925,29.1002566 C96.968904,22.8755954 104.201002,16.5740864 111.202288,19.7248409 C124.281613,25.4115685 131.975334,48.0816312 127.897662,85.5832942" id="Shape" fill="#7E6AC7"></path>
                <path d="M106.659773,12.2154703 C95.731383,12.2154703 84.879415,27.453934 77.3900287,30.9172212 C76.2436941,31.4559547 75.250204,31.6868405 74.4095586,31.6868405 C70.5884432,31.6868405 69.059997,27.376972 68.4486185,23.682799 C67.4551285,26.145581 66.84375,28.608363 66.84375,30.6863353 C66.84375,33.3800032 67.6843954,35.6888613 69.5949531,37.2281 C71.046977,38.3825291 72.4990009,38.9212627 74.1038694,38.9212627 C78.9948972,38.9212627 84.3444589,33.8417748 89.9232874,28.685325 C95.502116,23.6058371 101.310212,18.4493873 107.041885,18.4493873 C108.341064,18.4493873 109.640243,18.6802731 110.863,19.2959686 C121.485701,23.9906468 128.516554,40.0756917 128.516554,66.2427505 L128.516554,69.4751519 C128.440131,74.4007159 128.05802,79.7110896 127.446641,85.329311 C127.446641,85.329311 128.210864,86.637664 129.815733,87.2533595 C135.318139,57.6230135 129.892155,31.9177263 116.518251,17.2179963 C113.308514,13.6007852 110.022355,12.2154703 106.659773,12.2154703" id="Shape" fill="#6351AC"></path>
            </g>
        </g>
    </g>
</svg>