<?xml version="1.0" encoding="UTF-8" standalone="no"?>
<svg width="1200px" height="1200px" viewBox="0 0 1200 1200" version="1.1" xmlns="http://www.w3.org/2000/svg" xmlns:xlink="http://www.w3.org/1999/xlink">
    <!-- Generator: Sketch 39.1 (31720) - http://www.bohemiancoding.com/sketch -->
    <title>Artboard</title>
    <desc>Created with Sketch.</desc>
    <defs></defs>
    <g id="Page-1" stroke="none" stroke-width="1" fill="none" fill-rule="evenodd">
        <g id="Artboard">
            <g id="logo" transform="translate(303.000000, 208.000000)">
                <g id="ant" transform="translate(138.000000, 0.000000)">
                    <ellipse id="Oval" fill="#CCCCCC" cx="177" cy="606.5" rx="120" ry="16.5"></ellipse>
                    <path d="M106.186204,375.478588 C106.186204,375.478588 90.0859652,448.25796 88.1064276,480.692246 C86.12689,513.258378 85.2031058,547.538517 85.2031058,552.944231 C85.2031058,558.349945 82.9596299,572.062001 93.3851945,573.116774 C97.3442696,573.512314 100.51153,573.248621 103.546821,572.984927 C108.561649,572.589387 113.312539,572.193847 120.834782,574.567088 C127.301272,576.676635 135.48336,575.753708 144.061356,574.830781 C151.715568,574.039701 159.765688,573.248621 167.023992,574.567088 C182.464385,577.467715 192.362073,577.599562 212.157449,575.885555 C231.952825,574.171548 231.029041,570.87538 257.422875,572.457541 C283.816709,574.039701 285.136401,572.062001 283.552771,561.250572 C281.969141,550.439144 260.062259,392.223118 230.765102,368.095174 C201.599915,343.96723 106.186204,375.478588 106.186204,375.478588" id="Shape" fill="#E33B3B"></path>
                    <path d="M236.562417,560.783141 C230.74834,561.04683 224.669987,562.760807 219.913015,564.474784 L219.913015,575.022334 C229.691235,573.70389 233.52324,571.989914 245.547809,571.989914 C248.851262,571.989914 252.683267,572.121758 257.440239,572.385447 C262.461487,572.649135 266.689907,572.78098 269.99336,572.78098 C281.357238,572.78098 284,570.935159 284,565.793228 C284,564.870317 283.867862,563.947406 283.735724,562.892651 C278.318061,563.420029 271.975432,563.683718 266.029216,563.683718 C257.175963,563.683718 248.851262,563.024496 243.962151,561.574207 C243.301461,561.442363 242.64077,561.178674 242.112218,561.04683 C241.847942,562.760807 241.187251,564.079251 239.733732,564.342939 C239.601594,564.342939 239.337317,564.474784 239.205179,564.474784 C238.015936,564.606628 237.090969,563.024496 236.562417,560.783141 M146.708499,514.242075 C145.122842,527.426513 142.612218,555.113833 144.858566,574.89049 C149.351262,574.363112 153.843958,573.967579 158.336653,573.967579 C161.37583,573.967579 164.282869,574.231268 167.057769,574.626801 C175.911023,576.340778 183.046481,577 191.239044,577 C195.599602,577 200.356574,576.736311 205.774236,576.340778 C208.284861,557.618876 206.038513,531.118156 204.452855,516.747118 C196.920983,522.81196 187.407039,526.503602 176.968127,526.503602 C165.207835,526.503602 154.504648,521.889049 146.708499,514.242075 M90.1533865,487.477666 C90.1533865,487.477666 89.0962815,488.136888 87.5106242,489.059798 L87.5106242,490.246398 C89.0962815,488.664265 90.1533865,487.477666 90.1533865,487.477666 M88.6998672,472.315562 C88.5677291,474.029539 88.435591,475.611671 88.3034529,477.06196 C88.6998672,476.930115 88.9641434,476.930115 88.9641434,476.930115 C88.9641434,476.930115 88.8320053,475.347983 88.6998672,472.315562 M114.731076,406.525216 C107.463479,419.314121 97.8173971,443.177954 100.856574,477.06196 L103.23506,477.06196 C107.992032,477.06196 118.430943,477.589337 117.373838,482.863112 C116.581009,486.818444 111.559761,487.741354 107.727756,487.741354 C105.084993,487.741354 102.838645,487.345821 102.838645,487.345821 C102.838645,487.345821 109.181275,517.010807 100.724436,517.010807 L100.328021,517.010807 C91.3426295,515.956052 96.2317397,489.982709 96.2317397,489.982709 C96.2317397,489.982709 92.6640106,503.167147 86.7177955,506.199568 C85.6606906,529.272334 85.1321381,549.048991 85.1321381,553.004323 C85.1321381,554.586455 85,556.959654 85,559.596542 C85,565.529539 86.0571049,572.517291 93.3247012,573.308357 C94.9103586,573.440202 96.2317397,573.572046 97.5531208,573.572046 C99.6673307,573.572046 101.517264,573.440202 103.499336,573.308357 C105.34927,573.176513 107.199203,573.044669 109.181275,573.044669 C112.484728,573.044669 116.052457,573.440202 120.809429,575.022334 C123.716467,575.945245 127.01992,576.340778 130.455511,576.340778 L130.851926,576.340778 C130.719788,557.75072 131.24834,521.361671 137.326693,501.45317 C136.269588,499.079971 135.344622,496.706772 134.816069,494.201729 C129.662683,499.739193 118.430943,514.769452 117.109562,540.347262 C117.109562,540.347262 128.209163,541.270173 126.887782,545.357349 C126.227092,547.20317 124.377158,547.730548 122.395086,547.730548 C120.0166,547.730548 117.505976,546.939481 117.505976,546.939481 C117.505976,546.939481 118.827357,565.134006 113.938247,565.134006 C113.806109,565.134006 113.541833,565.134006 113.409695,565.002161 C107.859894,563.683718 113.145418,547.862392 113.145418,547.862392 C113.145418,547.862392 109.181275,557.355187 104.688579,557.355187 C104.160027,557.355187 103.631474,557.223343 103.102922,556.959654 C98.0816733,554.190922 109.577689,546.016571 109.577689,546.016571 C109.577689,546.016571 104.027888,548.521614 100.856574,548.521614 C99.2709163,548.521614 98.0816733,547.862392 98.6102258,545.884726 C100.063745,540.083573 109.709827,539.292507 109.709827,539.292507 C109.709827,539.292507 113.01328,494.465418 133.494688,486.159222 C133.494688,485.236311 133.36255,484.313401 133.36255,483.522334 C133.36255,476.930115 134.816069,470.733429 137.458831,465.195965 C123.584329,454.648415 114.598938,438.299712 114.598938,420.105187 C114.598938,420.105187 114.466799,417.863833 114.466799,414.304035 C114.466799,411.798991 114.598938,409.293948 114.731076,406.525216 M102.177955,394 C101.517264,397.29611 100.724436,401.119597 99.9316069,404.943084 C101.385126,402.042507 103.102922,399.273775 104.952855,396.768732 L102.177955,394" id="Shape" fill="#DA2B2B"></path>
                    <path d="M122.507403,396.150399 C122.507403,396.150399 96.5223979,424.492424 101.00712,477.617242 C101.00712,477.617242 118.814103,476.562655 117.495067,483.41747 C116.176031,490.140462 102.985673,487.899465 102.985673,487.899465 C102.985673,487.899465 109.448949,518.61431 100.479505,517.559723 C91.5100619,516.505136 96.3904943,490.535932 96.3904943,490.535932 C96.3904943,490.535932 91.1143511,510.309438 82.5406185,507.013853 C73.9668858,503.718269 90.4548332,488.163112 90.4548332,488.163112 C90.4548332,488.163112 71.9883321,500.027215 73.0435607,490.404109 C74.0987894,480.912826 89.1357974,477.617242 89.1357974,477.617242 C89.1357974,477.617242 84.255365,398.52322 120.133139,386 L122.507403,396.150399 M227.370749,396.150399 C227.370749,396.150399 253.487657,424.492424 248.871032,477.617242 C248.871032,477.617242 231.064049,476.562655 232.383085,483.41747 C233.70212,490.140462 246.892478,487.899465 246.892478,487.899465 C246.892478,487.899465 240.429203,518.61431 249.398646,517.559723 C258.36809,516.505136 253.487657,490.535932 253.487657,490.535932 C253.487657,490.535932 258.7638,510.309438 267.337533,507.013853 C275.911266,503.718269 259.423318,488.163112 259.423318,488.163112 C259.423318,488.163112 277.88982,500.027215 276.966494,490.404109 C275.911266,480.912826 260.742354,477.617242 260.742354,477.617242 C260.742354,477.617242 265.75469,398.52322 229.745013,386 L227.370749,396.150399 M216.290848,491.854166 C216.290848,491.854166 234.757349,507.2775 236.340192,540.496989 C236.340192,540.496989 225.260291,541.419753 226.579327,545.506277 C227.898363,549.592802 235.944481,547.088158 235.944481,547.088158 C235.944481,547.088158 234.493542,566.598017 240.033492,565.279783 C245.573443,563.961549 240.297299,548.142745 240.297299,548.142745 C240.297299,548.142745 245.177732,560.006848 250.190068,557.238557 C255.202404,554.470267 243.726792,546.297218 243.726792,546.297218 C243.726792,546.297218 256.125729,552.097446 254.806693,546.297218 C253.355754,540.496989 243.726792,539.706049 243.726792,539.706049 C243.726792,539.706049 240.165396,490.272285 216.818462,485.526644 L216.290848,491.854166 M136.884893,485.394821 C113.53796,490.140462 109.976563,539.574226 109.976563,539.574226 C109.976563,539.574226 100.347602,540.365166 98.8966623,546.165394 C97.4457229,551.965622 109.976563,546.165394 109.976563,546.165394 C109.976563,546.165394 98.5009516,554.338443 103.513288,557.106734 C108.525624,559.875025 113.406056,548.010921 113.406056,548.010921 C113.406056,548.010921 108.129913,563.697902 113.669863,565.147959 C119.209814,566.598017 117.758874,546.956334 117.758874,546.956334 C117.758874,546.956334 125.673089,549.460978 127.124028,545.374454 C128.443064,541.28793 117.363163,540.365166 117.363163,540.365166 C118.946006,507.145677 137.412507,491.722343 137.412507,491.722343 L136.884893,485.394821 M139.391061,496.731631 C128.970678,521.382601 131.476846,588.085226 131.476846,588.085226 C131.476846,588.085226 88.2124724,594.412748 86.8934366,604.958617 C85.5744008,615.504487 111.295599,611.945256 130.685425,607.595085 C150.075251,603.244913 150.866673,607.199614 146.118144,580.83494 C141.237711,554.470267 148.096697,507.013853 148.096697,507.013853 C148.096697,507.013853 149.67954,472.08066 139.391061,496.731631 M203.364297,507.145677 C203.364297,507.145677 210.223283,554.60209 205.342851,580.966764 C200.462418,607.331438 201.385743,603.376737 220.77557,607.726908 C240.165396,612.077079 265.886594,615.63631 264.567558,605.09044 C263.248522,594.544571 219.984148,588.217049 219.984148,588.217049 C219.984148,588.217049 222.490316,521.514424 212.069933,496.863454 C201.517647,472.08066 203.364297,507.145677 203.364297,507.145677" id="Shape" fill="#3A305B"></path>
                    <path d="M220,483.5 C220,507.490909 200.490909,527 176.5,527 C152.509091,527 133,507.490909 133,483.5 C133,459.509091 152.509091,440 176.5,440 C200.622727,440.131818 220,459.509091 220,483.5" id="Shape" fill="#44386B"></path>
                    <path d="M215.480499,463 C204.73947,472.098901 190.550702,477.505495 175.035881,477.505495 C160.714509,477.505495 147.586583,472.758242 137.110764,464.978022 C134.458658,470.516484 133,476.714286 133,483.307692 C133,500.978022 143.608424,516.274725 158.858034,523 C147.719189,507.307692 150.106084,480.142857 150.106084,480.142857 C162.305772,483.967033 172.516381,485.417582 181.00312,485.417582 C203.280811,485.417582 213.75663,475.131868 218,468.934066 C217.336973,466.956044 216.541342,464.978022 215.480499,463" id="Shape" fill="#362B5D"></path>
                    <path d="M217.542646,361.372653 C237.674457,371.513092 235.963911,419.31802 235.963911,419.31802 C235.963911,451.187973 208.989916,477 175.568478,477 C142.27862,477 115.173045,451.187973 115.173045,419.31802 C115.173045,419.31802 111.883533,377.175935 133.989051,363.611451 C156.094569,350.178661 217.542646,361.372653 217.542646,361.372653" id="Shape" fill="#4E427C"></path>
                    <path d="M115.264382,405.54993 C115,408.855134 115,411.895921 115,414.275668 C115,417.845288 115.132191,420.092827 115.132191,420.092827 C115.132191,452.087201 142.231334,478 175.807834,478 C194.843329,478 211.895961,469.538678 223,456.45007 C215.861689,459.490858 206.740514,461.606188 194.843329,461.606188 C189.159119,461.606188 182.946144,461.077356 176.204406,460.019691 C140.24847,454.202532 135.489596,427.893108 136.414933,410.309423 C136.01836,410.57384 135.489596,410.706048 135.093023,410.970464 C133.638923,411.499297 132.184823,411.763713 130.730722,411.763713 C125.443084,411.763713 120.155447,408.987342 115.264382,405.54993 M203.039168,384 C189.423501,387.305204 175.146879,389.02391 160.341493,389.02391 C153.731946,389.02391 147.122399,388.627286 140.645043,387.966245 C141.173807,389.420534 141.966952,391.668073 142.363525,394.312236 C142.363525,394.444444 142.363525,394.576653 142.495716,394.708861 C154.789474,396.16315 164.968176,396.691983 173.560588,396.691983 C186.383109,396.691983 195.239902,395.50211 201.320685,394.04782 L201.320685,393.386779 C201.320685,389.817159 202.246022,386.379747 203.039168,384" id="Shape" fill="#3E336C"></path>
                    <path d="M139.315772,385.52691 C139.315772,385.52691 148.567911,404.664016 134.425355,410.207177 C120.282799,415.750339 99.002878,390.410171 99.002878,390.410171 C98.6063577,361.770503 139.315772,385.52691 139.315772,385.52691 M203.684228,380.247708 C203.684228,380.247708 194.432089,399.384814 208.574645,404.927976 C222.849374,410.603117 243.997122,385.13097 243.997122,385.13097 C244.393642,356.491302 203.684228,380.247708 203.684228,380.247708" id="Shape" fill="#E35454"></path>
                    <g id="Group" transform="translate(100.000000, 372.000000)" fill="#DA3D3D">
                        <path d="M135.651402,0 C125.109346,4.91764706 113.908411,8.8 102.180374,11.5176471 C101.38972,13.8470588 100.46729,17.2117647 100.46729,20.5764706 L100.46729,20.8352941 C114.56729,17.7294118 128.140187,11.7764706 139.472897,1.81176471 C138.418692,1.03529412 137.100935,0.388235294 135.651402,0 M2.68971963,7.50588235 C1.63551402,8.54117647 0.713084112,9.83529412 0.0542056075,11.5176471 C8.09252336,14.2352941 23.3785047,18.7647059 41.8271028,21.6117647 C41.4317757,19.1529412 40.6411215,16.9529412 40.1140187,15.4 C26.9364486,14.1058824 14.5495327,11.3882353 2.68971963,7.50588235" id="Shape"></path>
                    </g>
                    <path d="M320,249.065882 C320,326.411765 248.375927,389 160,389 C71.6240725,389 0,326.28 0,249.065882 C0,171.851765 71.6240725,109 160,109 C248.375927,109 320,171.72 320,249.065882" id="Shape" fill="#64549E"></path>
                    <path d="M76.4446529,129 C30.5778612,153.692737 0,198.060437 0,248.766379 C0,326.277806 71.5680113,389 159.874765,389 C208.37758,389 251.74015,370.117318 281,340.142712 C250.422139,355.856272 218.789869,362.854749 189.002814,362.854749 C109.526735,362.854749 42.1763602,312.941087 38.749531,242.956323 C35.7181051,184.723718 57.4652908,148.939055 76.4446529,129" id="Shape" fill="#4F4089"></path>
                    <path d="M285,240 C285,268.215584 264.912911,291 240.200506,291 C215.488101,291 195.401013,268.215584 195.401013,240 C195.401013,211.784416 215.488101,189 240.200506,189 C264.912911,189 285,211.784416 285,240 L285,240 Z M24,240 C24,268.215584 44.0870886,291 68.7994937,291 C93.5118987,291 113.598987,268.215584 113.598987,240 C113.598987,211.784416 93.5118987,189 68.7994937,189 C44.0870886,189 24,211.784416 24,240 L24,240 Z" id="Shape" fill="#FFFFFF"></path>
                    <ellipse id="Oval" fill="#201B33" cx="80" cy="244.5" rx="23" ry="24.5"></ellipse>
                    <ellipse id="Oval" fill="#201B33" cx="229" cy="244.5" rx="23" ry="24.5"></ellipse>
                    <path d="M186.979498,286.876261 C186.056108,294.456496 180.515766,300.972839 173.92012,304.164517 C167.324475,307.622169 159.937352,308.819048 152.682142,308.952034 C149.120493,309.085021 145.426932,308.952034 141.865283,308.420088 C140.018502,308.154115 138.303635,307.755155 136.456854,307.356195 L133.818596,306.558276 L132.499467,306.159316 L131.180337,305.62737 C127.750602,304.43049 124.452779,302.568678 121.550695,300.307906 C118.648611,298.047134 116.142266,295.254416 114.295485,292.062738 C113.767833,291.131832 114.031659,290.333912 114.427398,290.200926 C114.955049,290.067939 115.482701,290.200926 116.010353,290.998845 C117.989046,293.791563 120.495392,296.052335 123.265563,297.914148 C126.035734,299.77596 129.069731,301.238812 132.367554,302.169718 L133.55477,302.568678 L134.741986,302.834651 L137.248331,303.499584 C138.963199,303.765558 140.546154,304.164517 142.261022,304.297504 C145.690758,304.696464 148.98858,304.82945 152.418316,304.696464 C159.277787,304.563477 166.137259,303.632571 172.07334,300.839853 C173.656294,300.17492 174.975424,299.244014 176.426466,298.446094 L178.405159,296.983242 C179.064724,296.451295 179.592375,295.786362 180.120027,295.254416 C180.647679,294.72247 181.17533,293.92455 181.702982,293.392604 C182.230634,292.727671 182.626372,292.062738 183.022111,291.264818 C183.813589,289.801966 184.473153,288.206127 184.736979,286.610288 C185.000805,285.546395 185.528456,285.014449 186.056108,285.014449 C186.58376,284.881462 187.111411,285.679382 186.979498,286.876261 L186.979498,286.876261 Z" id="Shape" fill="#2F2944"></path>
                    <path d="M112.038988,147.128938 C112.038988,147.128938 116.274671,154.659279 126.334418,148.714273 C136.52653,142.769267 132.555577,17.9241342 88.6103672,2.99556276 C37.6498076,-14.3110112 -8.28087854,48.309722 11.8386151,64.6915172 C22.2954572,73.1466373 34.3406804,61.5208472 47.047729,50.0271683 C58.828222,39.3261569 71.2705404,28.4930343 83.3157636,33.9095956 C105.950194,43.6858282 119.186703,82.6586474 112.038988,147.128938" id="Shape" fill="#7663BA"></path>
                    <path d="M77.0691361,21 C58.1636899,21 39.3904497,47.0898876 26.4342698,53.0194076 C24.4511811,53.9417773 22.7325041,54.3370787 21.2782391,54.3370787 C13.8747077,54.3370787 11.4950012,44.9816139 10.7017657,38.3932584 C8.32205917,43.4004086 7,48.4075587 7,52.7558733 C7,57.3677222 8.45426509,61.3207354 11.759413,63.9560776 C14.2713254,65.9325843 16.7832379,66.854954 19.5595621,66.854954 C28.0207408,66.854954 37.275155,58.1583248 46.926187,49.3299285 C56.5772189,40.6332993 66.6248686,31.804903 76.5403124,31.804903 C78.787813,31.804903 81.0353136,32.2002043 83.1506083,33.2543412 C101.527231,41.2921348 113.690175,68.8314607 113.690175,113.632278 C113.690175,123.646578 113.029146,134.583248 111.839292,146.310521 C111.839292,146.310521 113.425763,149.209397 117.259735,150 C126.910767,99.1378958 117.391941,54.9959142 94.3881113,29.6966292 C88.5710509,23.371808 82.8861965,21 77.0691361,21" id="Shape" fill="#5D4CA1"></path>
                    <path d="M220.038988,147.128938 C220.038988,147.128938 224.274671,154.659279 234.334418,148.714273 C244.52653,142.769267 240.555577,17.9241342 196.610367,2.99556276 C145.649808,-14.3110112 99.7191215,48.309722 119.838615,64.6915172 C130.295457,73.1466373 142.34068,61.5208472 155.047729,50.0271683 C166.828222,39.3261569 179.27054,28.4930343 191.315764,33.9095956 C213.817829,43.6858282 227.054338,82.6586474 220.038988,147.128938" id="Shape" fill="#7E6AC7"></path>
                    <path d="M183.500685,21 C164.699153,21 146.029101,47.1969231 133.144135,53.1507692 C131.171947,54.0769231 129.462717,54.4738462 128.016445,54.4738462 C121.442483,54.4738462 118.812898,47.0646154 117.761064,40.7138462 C116.051834,44.9476923 115,49.1815385 115,52.7538462 C115,57.3846154 116.446272,61.3538462 119.733253,64 C122.231358,65.9846154 124.729464,66.9107692 127.490528,66.9107692 C135.905199,66.9107692 145.108746,58.1784615 154.706731,49.3138462 C164.304716,40.5815385 174.297138,31.7169231 184.158081,31.7169231 C186.393228,31.7169231 188.628376,32.1138462 190.732043,33.1723077 C209.007658,41.2430769 221.103748,68.8953846 221.103748,113.88 L221.103748,119.436923 C220.972269,127.904615 220.314873,137.033846 219.263039,146.692308 C219.263039,146.692308 220.577831,148.941538 223.338895,150 C232.805401,99.0615385 223.470375,54.8707692 200.461507,29.6 C194.939379,23.3815385 189.285772,21 183.500685,21" id="Shape" fill="#6351AC"></path>
                </g>
                <text id="postcss-ant" fill="#434148" font-family="RobotoMonoForPowerline-Thin, Roboto Mono Thin for Powerline" font-size="90" font-style="condensed" font-weight="300">
                    <tspan x="0" y="763">postcss-ant</tspan>
                </text>
            </g>
        </g>
    </g>
</svg>